<svg width="80" height="80" viewBox="0 0 80 80" fill="none" xmlns="http://www.w3.org/2000/svg">
<rect width="80" height="80" rx="16" fill="#80FC03"/>
<path d="M23 25.3071C23 23.4807 24.5026 22 26.3562 22H53.3973C55.2508 22 56.7534 23.4806 56.7534 25.3071V48.2678C56.7534 50.0942 55.2508 51.5748 53.3973 51.5748H27.7797C26.4955 51.5748 25.4932 52.4862 25.4932 53.5591C25.4932 54.6212 26.4755 55.5251 27.7412 55.543L27.7797 55.5433H56.7534C57.4419 55.5433 58 56.0933 58 56.7716C58 57.4404 57.4577 57.9843 56.7828 57.9997L56.7534 58H27.7797C25.1613 58 23 56.0348 23 53.5591C23 53.4768 23.0024 53.3951 23.0071 53.3141C23.0034 53.2795 23.0012 53.2448 23.0003 53.2101L23 53.1811V25.3071ZM50.9041 38.7244H28.8493L28.8199 38.7248C28.145 38.7402 27.6028 39.2841 27.6028 39.9527C27.6028 40.6244 28.1498 41.1701 28.8287 41.1809L28.8493 41.1811H50.9041L50.9335 41.1808C51.6084 41.1654 52.1507 40.6215 52.1507 39.9527C52.1507 39.2744 51.5926 38.7244 50.9041 38.7244ZM50.9041 31.7323H28.8493L28.8199 31.7326C28.145 31.748 27.6028 32.2919 27.6028 32.9606C27.6028 33.6322 28.1498 34.1779 28.8287 34.1888L28.8493 34.189H50.9041L50.9335 34.1886C51.6084 34.1732 52.1507 33.6293 52.1507 32.9606C52.1507 32.2822 51.5926 31.7323 50.9041 31.7323Z" fill="#333333"/>
</svg>
